<?xml version="1.0" encoding="UTF-8"?>
<svg id="Layer_2" data-name="Layer 2" xmlns="http://www.w3.org/2000/svg" viewBox="0 0 62 33.49">
  <defs>
    <style>
      .cls-1 {
        font-family: AvantGardeLT-Bold, 'AvantGarde LT Medium';
        font-size: 5.9px;
        font-weight: 700;
      }

      .cls-1, .cls-2 {
        fill: #fff;
      }

      .cls-2 {
        stroke-width: 0px;
      }

      .cls-3 {
        fill: none;
        stroke: #fff;
        stroke-miterlimit: 10;
        stroke-width: 2px;
      }
    </style>
  </defs>
  <g id="Layer_1-2" data-name="Layer 1">
    <g>
      <text class="cls-1" transform="translate(1 5.13)"><tspan x="0" y="0">WIZHUB</tspan></text>
      <g>
        <rect class="cls-3" x="1" y="9.48" width="60" height="23.01" rx="2.1" ry="2.1"/>
        <g>
          <g>
            <path class="cls-2" d="M55.87,17.07h-3.5s-.07,0-.1,0v-3.09c0-.25-.17-.46-.37-.46s-.37.21-.37.46v6.5c0,.07-.05.13-.1.13h-1.3c-.47,0-.85.47-.85,1.05v6.32c0,.25.17.46.37.46s.37-.21.37-.46v-.83s.07,0,.1,0h4.24s.07,0,.1,0v.83c0,.25.17.46.37.46s.37-.21.37-.46v-6.32c0-.58-.38-1.05-.85-1.05h-2.09v-2.49c0-.07.04-.13.1-.13h3.5c.2,0,.37-.21.37-.46s-.17-.46-.37-.46ZM54.36,21.53c.06,0,.1.06.1.14v4.45c0,.07-.04.13-.1.13h-4.24c-.06,0-.1-.06-.1-.13v-4.45c0-.08.05-.14.1-.14h4.24Z"/>
            <path class="cls-2" d="M48.27,26.33l-1.94.57s-.04.01-.06.02l-2.26.67s0,0-.01,0h0l-1.67.49s-.06.01-.09.01c-.17,0-.32-.14-.36-.35-.05-.24.07-.49.28-.55l1.34-.4c-.28-1.7-1.24-7.81-1.22-9.1,0-.26.16-.45.38-.45.21,0,.37.21.37.47-.02,1.07.8,6.39,1.21,8.88l1.65-.49c.16-1.39.82-7.16.82-8.4,0-.25.17-.46.37-.46s.37.21.37.46c0,1.22-.57,6.32-.78,8.17l1.45-.43c.2-.06.4.09.45.34.05.24-.07.49-.28.55Z"/>
            <path class="cls-2" d="M48.17,16.27c0,.25-.17.46-.37.46h-6.09c-.2,0-.37-.21-.37-.46s.17-.46.37-.46h3.08c-.25-1.07-1.32-1.35-1.34-1.35-.2-.05-.33-.29-.29-.54.04-.25.23-.41.44-.36.63.16,1.75.82,1.95,2.25h2.25c.2,0,.37.21.37.46Z"/>
          </g>
          <g>
            <path class="cls-2" d="M38.58,27.68c0,.25-.21.46-.46.46h-7.17c-1.64,0-2.98-1.33-2.98-2.96v-8.39c0-1.64,1.34-2.96,2.98-2.96h7.17c.25,0,.46.2.46.46s-.21.46-.46.46h-7.17c-1.14,0-2.07.92-2.07,2.05v8.39c0,1.13.93,2.05,2.07,2.05h7.17c.25,0,.46.21.46.46Z"/>
            <path class="cls-2" d="M26.69,21.43c-.11,1.58-.6,6.71-2.69,6.71-.26,0-.46-.21-.46-.46s.2-.46.46-.46c.83,0,1.59-3.03,1.78-5.86.02-.25.23-.44.48-.43.25.02.44.24.43.49Z"/>
            <path class="cls-2" d="M27.39,16.51c0,.25-.21.46-.46.46s-.46-.21-.46-.46c0-1.4-1.79-1.75-1.86-1.77-.25-.05-.41-.28-.37-.53.05-.25.28-.41.53-.37.9.16,2.61.94,2.61,2.67Z"/>
            <path class="cls-2" d="M26.69,19.31c0,.26-.21.46-.46.46s-.46-.2-.46-.46c0-1.4-1.79-1.75-1.86-1.77-.25-.05-.41-.28-.37-.53.05-.25.28-.41.53-.37.9.16,2.61.94,2.61,2.67Z"/>
          </g>
          <g>
            <path class="cls-2" d="M19.11,21.63h-10.05c-.24,0-.43.21-.43.46v6.12c0,.26.19.46.43.46s.43-.21.43-.46v-.2c0-.26.19-.46.43-.46h8.32c.24,0,.43.21.43.46v.18c0,.26.19.46.43.46h0c.24,0,.43-.21.43-.46v-6.1c0-.25-.2-.46-.43-.46ZM18.67,26.19c0,.26-.19.46-.43.46h-8.32c-.24,0-.43-.21-.43-.46v-.69c0-.26.19-.46.43-.46h8.32c.24,0,.43.21.43.46v.69ZM18.67,23.71c0,.26-.19.46-.43.46h-8.32c-.24,0-.43-.21-.43-.46v-.72c0-.26.19-.46.43-.46h8.32c.24,0,.43.21.43.46v.72Z"/>
            <path class="cls-2" d="M19.37,14.42h-2.77c-.79,0-1.43.67-1.43,1.49v2.07c0,.82.64,1.49,1.43,1.49h2.77c.78,0,1.42-.67,1.42-1.49v-2.07c0-.82-.64-1.49-1.42-1.49ZM19.88,17.98c0,.32-.23.58-.51.58h-2.77c-.28,0-.51-.26-.51-.58v-2.07c0-.32.23-.58.51-.58h2.77c.28,0,.51.26.51.58v2.07Z"/>
            <path class="cls-2" d="M13.92,19.02c.41.37.63.86.63,1.42,0,.25-.21.46-.46.46s-.46-.21-.46-.46c0-.31-.11-.54-.32-.74-.69-.62-2.32-.65-3.13-.59-.46.87-1.39,1.79-3.25,1.79-.25,0-.46-.21-.46-.46s.21-.46.46-.46c1.24,0,2.09-.49,2.53-1.47,0,0,0-.01,0-.02.18-.41.26-.83.29-1.13h-3.54c-.26,0-.46-.21-.46-.46s.2-.46.46-.46h3.56v-1.11h-1.6c-.24.33-.6.61-1.14.72-.03,0-.06,0-.09,0-.21,0-.41-.15-.45-.37-.05-.25.11-.49.36-.54.93-.18.82-1.3.82-1.35-.03-.25.16-.48.41-.5.25-.03.48.16.5.41.02.2.01.45-.04.71h3.79c.25,0,.46.21.46.46s-.21.46-.46.46h-1.64v1.11h3.4c.25,0,.46.21.46.46s-.21.46-.46.46h-3.42c-.02.22-.06.51-.14.82.92-.03,2.51.06,3.38.85Z"/>
          </g>
        </g>
      </g>
    </g>
  </g>
</svg>